<svg width="32" height="32" viewBox="0 0 32 32" fill="none" xmlns="http://www.w3.org/2000/svg">
  <defs>
    <linearGradient id="gradient" x1="0%" y1="0%" x2="100%" y2="100%">
      <stop offset="0%" style="stop-color:#fbbf24;stop-opacity:1" />
      <stop offset="50%" style="stop-color:#f59e0b;stop-opacity:1" />
      <stop offset="100%" style="stop-color:#dc2626;stop-opacity:1" />
    </linearGradient>
    <filter id="glow" x="-50%" y="-50%" width="200%" height="200%">
      <feGaussianBlur stdDeviation="2" result="coloredBlur"/>
      <feMerge> 
        <feMergeNode in="coloredBlur"/>
        <feMergeNode in="SourceGraphic"/>
      </feMerge>
    </filter>
  </defs>
  
  <!-- Background hexagon -->
  <path d="M8 6.928l6-3.464 6 3.464v6.928l-6 3.464-6-3.464V6.928z" 
        fill="url(#gradient)" 
        stroke="none"/>
  
  <!-- Inner hexagon pattern -->
  <path d="M11 9.464l3-1.732 3 1.732v3.464l-3 1.732-3-1.732V9.464z" 
        fill="rgba(255,255,255,0.2)" 
        stroke="rgba(255,255,255,0.3)" 
        stroke-width="0.5"/>
  
  <!-- Center star/spark -->
  <path d="M16 12l1.5 3h3l-2.5 2 1 3-3-2-3 2 1-3-2.5-2h3L16 12z" 
        fill="white" 
        filter="url(#glow)"/>
  
  <!-- Honey cells -->
  <circle cx="16" cy="8" r="1" fill="rgba(255,255,255,0.4)"/>
  <circle cx="12.5" cy="10" r="0.8" fill="rgba(255,255,255,0.3)"/>
  <circle cx="19.5" cy="10" r="0.8" fill="rgba(255,255,255,0.3)"/>
  <circle cx="12.5" cy="16" r="0.8" fill="rgba(255,255,255,0.3)"/>
  <circle cx="19.5" cy="16" r="0.8" fill="rgba(255,255,255,0.3)"/>
  <circle cx="16" cy="18" r="1" fill="rgba(255,255,255,0.4)"/>
</svg> 